HIERARCHY
ROOT Hips
{
 OFFSET 0.000000 0.000000 0.000000
 CHANNELS 6 Xposition Yposition Zposition Yrotation Xrotation Zrotation
 JOINT Chest
 {
  OFFSET 0.000000 9.585900 0.002600
  CHANNELS 3 Yrotation Xrotation Zrotation
  JOINT Chest2
  {
   OFFSET 0.000000 9.601200 -0.005300
   CHANNELS 3 Yrotation Xrotation Zrotation
   JOINT Chest3
   {
    OFFSET 0.000000 9.561800 0.000000
    CHANNELS 3 Yrotation Xrotation Zrotation
    JOINT Chest4
    {
     OFFSET 0.000000 9.552100 0.000000
     CHANNELS 3 Yrotation Xrotation Zrotation
     JOINT Neck
     {
      OFFSET 0.000000 14.453000 0.000000
      CHANNELS 3 Yrotation Xrotation Zrotation
      JOINT Head
      {
       OFFSET 0.000000 8.936500 -0.011300
       CHANNELS 3 Yrotation Xrotation Zrotation
       End Site
       {
        OFFSET 0.000000 17.073600 -0.006000
       }
      }
     }
     JOINT RightCollar
     {
      OFFSET -2.921100 9.558500 0.000000
      CHANNELS 3 Yrotation Xrotation Zrotation
      JOINT RightShoulder
      {
       OFFSET -13.519700 0.000000 0.000000
       CHANNELS 3 Yrotation Xrotation Zrotation
       JOINT RightElbow
       {
        OFFSET 0.000000 -29.696600 0.000000
        CHANNELS 3 Yrotation Xrotation Zrotation
        JOINT RightWrist
        {
         OFFSET 0.000000 -24.004700 0.000000
         CHANNELS 3 Yrotation Xrotation Zrotation
         End Site
         {
          OFFSET 0.000000 -17.728500 0.000000
         }
        }
       }
      }
     }
     JOINT LeftCollar
     {
      OFFSET 2.921100 9.558500 0.000000
      CHANNELS 3 Yrotation Xrotation Zrotation
      JOINT LeftShoulder
      {
       OFFSET 13.519700 0.000000 0.000000
       CHANNELS 3 Yrotation Xrotation Zrotation
       JOINT LeftElbow
       {
        OFFSET 0.000000 -29.696600 0.000000
        CHANNELS 3 Yrotation Xrotation Zrotation
        JOINT LeftWrist
        {
         OFFSET 0.000000 -24.004700 0.000000
         CHANNELS 3 Yrotation Xrotation Zrotation
         End Site
         {
          OFFSET 0.000000 -17.728500 0.000000
         }
        }
       }
      }
     }
    }
   }
  }
 }
 JOINT RightHip
 {
  OFFSET -7.771700 -0.012900 -0.001300
  CHANNELS 3 Yrotation Xrotation Zrotation
  JOINT RightKnee
  {
   OFFSET 0.000000 -40.869800 0.001200
   CHANNELS 3 Yrotation Xrotation Zrotation
   JOINT RightAnkle
   {
    OFFSET 0.000000 -39.717900 0.002100
    CHANNELS 3 Yrotation Xrotation Zrotation
    JOINT RightToe
    {
     OFFSET 0.000000 -4.965400 11.033500
     CHANNELS 3 Yrotation Xrotation Zrotation
     End Site
     {
      OFFSET 0.000000 -1.423100 5.872300
     }
    }
   }
  }
 }
 JOINT LeftHip
 {
  OFFSET 7.771700 -0.012900 -0.001300
  CHANNELS 3 Yrotation Xrotation Zrotation
  JOINT LeftKnee
  {
   OFFSET 0.000000 -40.869800 0.001200
   CHANNELS 3 Yrotation Xrotation Zrotation
   JOINT LeftAnkle
   {
    OFFSET 0.000000 -39.717900 0.002100
    CHANNELS 3 Yrotation Xrotation Zrotation
    JOINT LeftToe
    {
     OFFSET 0.000000 -4.965400 11.033500
     CHANNELS 3 Yrotation Xrotation Zrotation
     End Site
     {
      OFFSET 0.000000 -1.423100 5.872300
     }
    }
   }
  }
 }
}
MOTION
Frames: 15
Frame Time: 0.008333
0.000000 85.388000 0.000000 0.000000 -5.767877 0.000000 0.000000 11.653817 0.000000 0.000000 -5.885947 0.000000 0.000000 -0.000000 0.000000 0.000000 -0.000000 0.000000 0.000000 12.528835 0.000000 0.000000 0.711642 0.000000 0.000000 -0.000000 0.000000 0.000000 0.000000 -90.000000 0.000000 -2.309062 0.000000 0.000000 2.309062 0.000000 0.000000 -0.000000 0.000000 0.000000 -0.000000 90.000000 0.000000 -2.309062 0.000000 0.000000 2.309062 0.000000 0.000000 8.520406 0.000000 0.000000 1.905762 0.000000 -0.000000 -4.658285 0.000000 0.000000 -0.000000 0.000000 0.000000 8.520406 0.000000 0.000000 1.905762 0.000000 -0.000000 -4.658285 0.000000 0.000000 -0.000000 0.000000
-7.254879 55.517887 25.618438 179.338356 -28.689278 -10.388451 0.557940 15.829863 6.463233 0.155339 9.141257 2.731428 0.245670 11.366293 3.432329 0.170066 9.196724 2.724048 3.561921 20.676890 -2.004080 4.264765 -3.761469 -2.958601 2.559954 3.331565 -3.176975 -2.772910 -21.897676 -0.202899 -101.815240 -65.233902 135.461774 2.332216 -9.453805 -11.372288 -15.073181 2.175263 -4.223235 -7.838529 -24.096189 4.051743 147.097056 -70.042698 -153.789860 34.879783 -6.936571 -1.857149 -17.486652 -36.491389 10.434670 30.796222 86.974762 27.155549 0.115020 -18.121448 -0.517106 -0.050865 0.555529 0.004270 -16.787598 -48.905846 16.150045 172.244700 79.274114 167.865022 -0.773506 -17.042151 0.926816 -0.506286 -2.061637 -0.246109
-7.257181 55.514348 25.627571 179.333149 -28.702446 -10.361531 0.553608 15.847660 6.436502 0.165995 9.156393 2.730904 0.259349 11.402272 3.429931 0.180986 9.221105 2.727985 3.563362 20.690836 -2.007519 4.264961 -3.733926 -2.966038 2.554111 3.337358 -3.141099 -2.536798 -21.805244 -0.234747 -101.356532 -65.444742 134.880373 2.442317 -9.400106 -11.498603 -15.110858 2.241318 -4.227169 -8.066969 -23.998291 4.021590 147.621169 -70.216402 -154.077589 34.589649 -6.919345 -1.749399 -17.454359 -36.499697 10.408079 30.782137 86.978990 27.136974 0.108672 -18.116363 -0.514866 -0.048684 0.557569 -0.002398 -16.753146 -48.894874 16.106343 172.296532 79.287910 167.923051 -0.786857 -17.078979 0.913208 -0.474187 -2.022925 -0.227258
-7.255395 55.515855 25.631386 179.305211 -28.776375 -10.347389 0.584291 15.916559 6.435868 0.174249 9.162988 2.729376 0.279633 11.451234 3.429222 0.181562 9.249595 2.738148 3.565142 20.697858 -2.015353 4.272211 -3.710778 -2.975294 2.570727 3.333754 -3.105342 -2.303761 -21.704744 -0.270922 -101.136116 -65.723588 134.468795 2.553204 -9.326922 -11.577553 -15.141433 2.299201 -4.235660 -8.250522 -23.920578 3.956405 148.217531 -70.436589 -154.423110 34.310753 -6.869144 -1.667512 -17.395395 -36.437694 10.388925 30.653510 86.973353 27.006134 0.105950 -18.112269 -0.525075 -0.053067 0.563634 0.007616 -16.699557 -48.820037 16.076299 172.345971 79.297564 167.974112 -0.775063 -17.084773 0.902846 -0.471206 -2.019270 -0.224373
-7.253013 55.515145 25.642124 179.291999 -28.816284 -10.344577 0.594808 15.949367 6.443042 0.183127 9.195979 2.725903 0.289498 11.484119 3.431774 0.189029 9.270557 2.748540 3.565503 20.703188 -2.026588 4.293595 -3.630978 -2.994719 2.597002 3.335326 -3.070538 -2.082965 -21.605153 -0.302091 -101.062390 -66.025585 134.174302 2.652951 -9.223606 -11.603145 -15.160580 2.286929 -4.238371 -8.387693 -23.795443 3.840881 148.813538 -70.683923 -154.772889 34.064585 -6.792778 -1.607155 -17.359674 -36.409057 10.387832 30.448754 86.966743 26.801202 0.097373 -18.097425 -0.519942 -0.055485 0.565870 0.010520 -16.681408 -48.782541 16.070225 172.360201 79.307066 167.991432 -0.772832 -17.084343 0.899036 -0.466414 -2.011385 -0.226471
-7.250931 55.513346 25.657480 179.285128 -28.836430 -10.344495 0.596135 15.956696 6.452768 0.187215 9.230952 2.725688 0.304229 11.540920 3.444586 0.185226 9.229401 2.737221 3.577320 20.742557 -2.025857 4.299091 -3.597514 -3.007881 2.628351 3.381882 -3.025620 -1.889442 -21.514195 -0.319817 -100.989820 -66.289504 133.894557 2.729443 -9.088965 -11.582537 -15.175714 2.317490 -4.248569 -8.494139 -23.693285 3.713884 149.294475 -70.926224 -155.025974 33.847202 -6.699391 -1.538409 -17.338752 -36.400864 10.392774 30.212573 86.959453 26.566275 0.090214 -18.076439 -0.513103 -0.052108 0.564847 0.004657 -16.672763 -48.770374 16.067787 172.309999 79.315129 167.949269 -0.774552 -17.073223 0.894884 -0.465573 -2.008184 -0.226363
-7.249664 55.517313 25.664537 179.268119 -28.925825 -10.335850 0.617474 16.024174 6.459864 0.193833 9.262658 2.730205 0.307201 11.549910 3.439731 0.206511 9.280739 2.759344 3.566754 20.733930 -2.043194 4.293286 -3.599439 -3.019814 2.638655 3.390051 -2.999796 -1.749146 -21.438187 -0.316554 -100.790998 -66.468080 133.537419 2.781126 -8.936453 -11.533735 -15.214788 2.470158 -4.265468 -8.592358 -23.774887 3.610567 149.559883 -71.135461 -155.088921 33.639324 -6.595534 -1.429882 -17.284363 -36.321405 10.366141 29.971670 86.949110 26.323355 0.091567 -18.062094 -0.513118 -0.048817 0.563270 0.000216 -16.608477 -48.684675 16.027602 172.284083 79.324720 167.928639 -0.777165 -17.061410 0.896127 -0.465616 -2.017524 -0.226145
-7.244149 55.522223 25.673693 179.240876 -29.013192 -10.350627 0.652119 16.085235 6.495898 0.206646 9.286245 2.734839 0.317646 11.578213 3.447508 0.214266 9.314372 2.779175 3.541877 20.698394 -2.075353 4.287919 -3.607670 -3.026390 2.642730 3.400018 -2.981911 -1.687973 -21.383667 -0.286287 -100.422705 -66.551721 133.085118 2.816265 -8.790036 -11.483688 -15.240954 2.554830 -4.274167 -8.662663 -23.804964 3.483602 149.583110 -71.298419 -154.937421 33.427188 -6.486122 -1.270297 -17.238286 -36.234450 10.380006 29.705330 86.927710 26.054684 0.080451 -18.038544 -0.506686 -0.051090 0.562958 -0.001260 -16.559262 -48.605231 16.023310 172.229423 79.328791 167.889400 -0.755551 -17.014987 0.899641 -0.486527 -2.057780 -0.233415
-7.241980 55.523866 25.689023 179.225649 -29.058483 -10.354026 0.662088 16.108708 6.514119 0.214100 9.305816 2.741553 0.332340 11.640010 3.487437 0.205393 9.292681 2.750810 3.540996 20.705883 -2.082596 4.283461 -3.603869 -3.044545 2.647698 3.412085 -2.967885 -1.711344 -21.338535 -0.218203 -99.937939 -66.564890 132.595173 2.848991 -8.671297 -11.466038 -15.251613 2.626013 -4.270456 -8.697298 -23.810309 3.348729 149.412077 -71.414611 -154.624725 33.216140 -6.382484 -1.070525 -17.214938 -36.195603 10.384710 29.533734 86.906816 25.881499 0.074163 -18.016866 -0.506074 -0.051757 0.564840 -0.004514 -16.534847 -48.566729 16.022033 172.197941 79.338230 167.862951 -0.750905 -16.996972 0.899827 -0.488211 -2.062054 -0.235561
-7.239567 55.525747 25.704972 179.211378 -29.101724 -10.362054 0.676718 16.136950 6.536148 0.214769 9.321080 2.751057 0.340851 11.681499 3.499671 0.210283 9.318994 2.759033 3.530147 20.672185 -2.107406 4.273067 -3.632857 -3.065858 2.639767 3.359524 -2.994459 -1.801700 -21.287624 -0.109065 -99.460511 -66.548728 132.161403 2.889033 -8.589186 -11.499257 -15.263461 2.654991 -4.262508 -8.694267 -23.813533 3.213849 149.143193 -71.489798 -154.249653 33.021092 -6.295867 -0.852275 -17.197478 -36.156600 10.390853 29.398699 86.883917 25.747732 0.077365 -17.994525 -0.513012 -0.051901 0.564612 -0.009219 -16.507660 -48.532076 16.021666 172.156330 79.347189 167.830853 -0.738234 -16.976084 0.893801 -0.501169 -2.068027 -0.232844
-7.238079 55.532037 25.713170 179.201532 -29.197079 -10.368564 0.703072 16.225630 6.551408 0.214077 9.336470 2.768268 0.343621 11.721861 3.511301 0.217747 9.364564 2.776932 3.511444 20.600327 -2.152049 4.268420 -3.724304 -3.118411 2.633906 3.324589 -2.992963 -1.917834 -21.302563 -0.039091 -99.121713 -66.538137 131.872644 2.936297 -8.539344 -11.570903 -15.277517 2.645671 -4.254108 -8.659105 -23.806472 3.085553 148.886657 -71.527525 -153.908209 32.853523 -6.225473 -0.645394 -17.162401 -36.062337 10.376802 29.131095 86.866015 25.475029 0.077453 -17.972429 -0.510592 -0.050737 0.560280 -0.011754 -16.447993 -48.441815 15.990674 172.135381 79.356117 167.822285 -0.739849 -16.949258 0.890875 -0.502323 -2.087320 -0.229779
-7.237949 55.533746 25.729279 179.196433 -29.232980 -10.372265 0.703736 16.251202 6.567632 0.209314 9.388239 2.795236 0.349492 11.737626 3.499014 0.220672 9.392101 2.785135 3.502295 20.535032 -2.188689 4.270121 -3.787361 -3.149301 2.630885 3.294467 -2.981535 -2.034845 -21.319426 0.027669 -99.000079 -66.553024 131.777233 2.989961 -8.510604 -11.651696 -15.287171 2.644861 -4.237946 -8.599279 -23.783938 2.971378 148.713582 -71.532695 -153.654224 32.717336 -6.169363 -0.485600 -17.153198 -36.031777 10.378597 28.864730 86.848410 25.203920 0.079185 -17.948985 -0.508098 -0.049609 0.560878 -0.013821 -16.430745 -48.413783 15.986663 172.116328 79.368707 167.806454 -0.738285 -16.925971 0.891436 -0.507111 -2.091386 -0.230079
-7.241785 55.533076 25.748149 179.207028 -29.239521 -10.362316 0.677160 16.255406 6.559584 0.216106 9.406300 2.791748 0.348496 11.782979 3.517157 0.222889 9.417813 2.793155 3.493687 20.460038 -2.229838 4.276702 -3.829404 -3.167433 2.611934 3.271125 -2.931514 -2.107898 -21.348309 0.053172 -99.133432 -66.610823 131.895251 3.049624 -8.494019 -11.715535 -15.294666 2.637185 -4.215721 -8.519279 -23.743615 2.869993 148.659090 -71.515065 -153.518967 32.606338 -6.132860 -0.396219 -17.154537 -36.036588 10.361255 28.732571 86.836981 25.066563 0.080767 -17.931945 -0.505621 -0.049965 0.566846 -0.014324 -16.424493 -48.415951 15.969245 172.151553 79.393625 167.837706 -0.742598 -16.903646 0.892860 -0.496721 -2.083559 -0.225378
-7.241091 55.536074 25.762169 179.196459 -29.279942 -10.371910 0.678019 16.298966 6.578005 0.229811 9.416572 2.790123 0.344820 11.823478 3.534300 0.224449 9.440786 2.801058 3.495567 20.407559 -2.259092 4.271785 -3.861726 -3.184172 2.601543 3.216749 -2.920816 -2.185833 -21.337050 0.122700 -99.543165 -66.725561 132.240475 3.113858 -8.484552 -11.744566 -15.300178 2.626177 -4.188532 -8.424813 -23.685085 2.777933 148.757400 -71.484337 -153.534884 32.509601 -6.116547 -0.382720 -17.144377 -35.998337 10.367687 28.507873 86.815991 24.841543 0.084182 -17.905185 -0.506865 -0.048848 0.563778 -0.016674 -16.417742 -48.376756 15.983176 172.189317 79.407744 167.872438 -0.737424 -16.887124 0.890875 -0.496192 -2.084597 -0.223285
-7.240718 55.540643 25.773145 179.181768 -29.334145 -10.380417 0.697944 16.352589 6.595893 0.224608 9.441525 2.801200 0.349984 11.822642 3.529519 0.220398 9.480974 2.820852 3.505686 20.354719 -2.269093 4.275407 -3.926086 -3.225209 2.592913 3.150419 -2.911680 -2.248413 -21.301212 0.195738 -100.225481 -66.898702 132.811027 3.184025 -8.480122 -11.733928 -15.302461 2.614744 -4.158168 -8.320652 -23.610282 2.694498 149.054895 -71.453263 -153.739980 32.417028 -6.117156 -0.435885 -17.139214 -35.944356 10.376396 28.390158 86.794398 24.713353 0.083419 -17.875442 -0.506396 -0.048314 0.556561 -0.020311 -16.396431 -48.319211 15.986565 172.228174 79.423253 167.911954 -0.731817 -16.882427 0.885667 -0.493661 -2.078477 -0.219434
